{"title":"Parts Per Billion 2014 HDRIP x264 AC3 TiTAN","uid":10187645,"size":1125915441,"categoryP":"video","categoryS":"movies","magnet":"?xt=urn:btih:e44121d98efa993d0380b62363110b2cd4804a97&amp;dn=Parts+Per+Billion+2014+HDRIP+x264+AC3+TiTAN&amp;tr=udp%3A%2F%2Ftracker.openbittorrent.com%3A80&amp;tr=udp%3A%2F%2Fopen.demonii.com%3A1337&amp;tr=udp%3A%2F%2Ftracker.coppersurfer.tk%3A6969&amp;tr=udp%3A%2F%2Fexodus.desync.com%3A6969","seeders":0,"leechers":0,"uploader":"xxxlavalxxx","files":-1,"time":1400599769,"description":" &lt;a href=&quot;\nhttp://www.imdb.com/title/tt2495104/&quot; rel=&quot;nofollow&quot; target=&quot;_NEW&quot;&gt;\nhttp://www.imdb.com/title/tt2495104/&lt;/a&gt;\n\n\nThe interwoven stories of three couples which are forced to make life altering decisions in the face of a disastrous war. Inspired and sometimes blinded by their love, Len, Mia, Andy, Esther, Anna and Erik are as flawed and beautiful as any of the billions who are facing this human-made biological disaster.\n\nDirector: Brian Horiuchi\nWriter: Brian Horiuchi (screenplay)\nStars: Rosario Dawson, Josh Hartnett, Teresa Palmer\nGenres: Sci-Fi\nCountry: USA\nLanguage: English\n\n\n\nSource: Itunes\n\nGeneral\n\nFormat                                   : Matroska\nFormat version                           : Version 2\nFile size                                : 1.05 GiB\nDuration                                 : 1h 38mn\nOverall bit rate mode                    : Variable\nOverall bit rate                         : 1 522 Kbps\nEncoded date                             : UTC 2014-05-20 11:45:04\nWriting application                      : mkvmerge v6.9.1 ('Blue Panther') 32bit built on Apr 18 2014 18:15:44\nWriting library                          : libebml v1.3.0 + libmatroska v1.4.1\n\nVideo\nID                                       : 1\nFormat                                   : AVC\nFormat/Info                              : Advanced Video Codec\nFormat profile                           : &lt;a class=&quot;__cf_email__&quot; href=&quot;/cdn-cgi/l/email-protection&quot; data-cfemail=&quot;f7bf9e909fb7bbc3d9c6&quot;&gt;[email&amp;#160;protected]&lt;/a&gt;&lt;script data-cfhash='f9e31' type=&quot;text/javascript&quot;&gt;\n/* &lt;![CDATA[ */!function(){try{var t=&quot;currentScript&quot;in document?document.currentScript:function(){for(var t=document.getElementsByTagName(&quot;script&quot;),e=t.length;e--;)if(t[e].getAttribute(&quot;data-cfhash&quot;))return t[e]}();if(t&amp;&amp;t.previousSibling){var e,r,n,i,c=t.previousSibling,a=c.getAttribute(&quot;data-cfemail&quot;);if(a){for(e=&quot;&quot;,r=parseInt(a.substr(0,2),16),n=2;a.length-n;n+=2)i=parseInt(a.substr(n,2),16)^r,e+=String.fromCharCode(i);e=document.createTextNode(e),c.parentNode.replaceChild(e,c)}t.parentNode.removeChild(t);}}catch(u){}}()/* ]]&gt; */&lt;/script&gt;\nFormat settings, CABAC                   : Yes\nFormat settings, ReFrames                : 3 frames\nCodec ID                                 : V_MPEG4/ISO/AVC\nDuration                                 : 1h 38mn\nBit rate mode                            : Variable\nBit rate                                 : 1 108 Kbps\nMaximum bit rate                         : 40.0 Mbps\nWidth                                    : 720 pixels\nHeight                                   : 384 pixels\nDisplay aspect ratio                     : 1.85:1\nFrame rate mode                          : Constant\nFrame rate                               : 23.976 fps\nColor space                              : YUV\nChroma subsampling                       : 4:2:0\nBit depth                                : 8 bits\nScan type                                : Progressive\nBits/(Pixel*Frame)                       : 0.167\nStream size                              : 782 MiB (73%)\nWriting library                          : x264 core 142 r2431 ac76440\nDefault                                  : Yes\nForced                                   : No\nColor primaries                          : BT.709\nTransfer characteristics                 : BT.709\nMatrix coefficients                      : BT.709\n\nAudio\nID                                       : 2\nFormat                                   : AC-3\nFormat/Info                              : Audio Coding 3\nMode extension                           : CM (complete main)\nFormat settings, Endianness              : Big\nCodec ID                                 : A_AC3\nDuration                                 : 1h 38mn\nBit rate mode                            : Constant\nBit rate                                 : 384 Kbps\nChannel(s)                               : 6 channels\nChannel positions                        : Front: L C R, Side: L R, LFE\nSampling rate                            : 48.0 KHz\nBit depth                                : 16 bits\nCompression mode                         : Lossy\nStream size                              : 271 MiB (25%)\nLanguage                                 : English\nDefault                                  : Yes\nForced                                   : No\n\n\nscreens\n &lt;a href=&quot;\nhttp://i.imgur.com/oAHkFg7.jpg&quot; rel=&quot;nofollow&quot; target=&quot;_NEW&quot;&gt;\nhttp://i.imgur.com/oAHkFg7.jpg&lt;/a&gt; &lt;a href=&quot;\nhttp://i.imgur.com/QE9RzwA.jpg&quot; rel=&quot;nofollow&quot; target=&quot;_NEW&quot;&gt;\nhttp://i.imgur.com/QE9RzwA.jpg&lt;/a&gt; &lt;a href=&quot;\nhttp://i.imgur.com/g4N8ESl.jpg&quot; rel=&quot;nofollow&quot; target=&quot;_NEW&quot;&gt;\nhttp://i.imgur.com/g4N8ESl.jpg&lt;/a&gt; &lt;a href=&quot;\nhttp://i.imgur.com/2YZrdCD.jpg&quot; rel=&quot;nofollow&quot; target=&quot;_NEW&quot;&gt;\nhttp://i.imgur.com/2YZrdCD.jpg&lt;/a&gt; &lt;a href=&quot;\nhttp://i.imgur.com/T3O5A7Q.jpg&quot; rel=&quot;nofollow&quot; target=&quot;_NEW&quot;&gt;\nhttp://i.imgur.com/T3O5A7Q.jpg&lt;/a&gt; &lt;a href=&quot;\nhttp://i.imgur.com/BtIqWvb.jpg&quot; rel=&quot;nofollow&quot; target=&quot;_NEW&quot;&gt;\nhttp://i.imgur.com/BtIqWvb.jpg&lt;/a&gt; &lt;a href=&quot;\nhttp://i.imgur.com/OrNNqE8.jpg&quot; rel=&quot;nofollow&quot; target=&quot;_NEW&quot;&gt;\nhttp://i.imgur.com/OrNNqE8.jpg&lt;/a&gt;","torrent":{"xt":"urn:btih:e44121d98efa993d0380b62363110b2cd4804a97","amp;dn":"Parts+Per+Billion+2014+HDRIP+x264+AC3+TiTAN","amp;tr":["udp%3A%2F%2Ftracker.openbittorrent.com%3A80","udp%3A%2F%2Fopen.demonii.com%3A1337","udp%3A%2F%2Ftracker.coppersurfer.tk%3A6969","udp%3A%2F%2Fexodus.desync.com%3A6969"],"infoHash":"e44121d98efa993d0380b62363110b2cd4804a97","infoHashBuffer":{"type":"Buffer","data":[228,65,33,217,142,250,153,61,3,128,182,35,99,17,11,44,212,128,74,151]},"announce":[],"urlList":[]}}